<svg data-v-0dd9719b="" version="1.0" xmlns="http://www.w3.org/2000/svg" xmlns:xlink="http://www.w3.org/1999/xlink" width="100%" height="100%" viewBox="0 0 340.000000 250.000000" preserveAspectRatio="xMidYMid meet" color-interpolation-filters="sRGB" style="margin: auto;"> <rect data-v-0dd9719b="" x="0" y="0" width="100%" height="100%" fill="#ffffff" fill-opacity="1" class="background"></rect> <rect data-v-0dd9719b="" x="0" y="0" width="100%" height="100%" fill="url(#watermark)" fill-opacity="1" class="watermarklayer"></rect> <g data-v-0dd9719b="" fill="#26125b" class="icon-text-wrapper icon-svg-group iconsvg" transform="translate(47.8699951171875,95)"><g class="iconsvg-imagesvg" transform="translate(0,0)"><g><rect fill="#26125b" fill-opacity="0" stroke-width="2" x="0" y="0" width="60" height="60" class="image-rect"></rect> <svg filter="url(#colors5330258979)" x="0" y="0" width="60" height="60" filtersec="colorsf6590340523" class="image-svg-svg primary" style="overflow: visible;"><svg version="1.1" id="Capa_1" xmlns="http://www.w3.org/2000/svg" xmlns:xlink="http://www.w3.org/1999/xlink" x="0px" y="0px" viewBox="0 0 60 60" style="enable-background:new 0 0 60 60;" xml:space="preserve"><g> <path d="M59,0H1C0.447,0,0,0.448,0,1v58c0,0.552,0.447,1,1,1h58c0.553,0,1-0.448,1-1V1C60,0.448,59.553,0,59,0z M16,54 c-5.514,0-10-4.486-10-10s4.486-10,10-10s10,4.486,10,10S21.514,54,16,54z M26,25c0,0.552-0.447,1-1,1H7c-0.553,0-1-0.448-1-1V7 c0-0.552,0.447-1,1-1h18c0.553,0,1,0.448,1,1V25z M53.954,42.409l-3.12,9.892C50.702,52.717,50.316,53,49.88,53H38.486 c-0.425,0-0.804-0.269-0.944-0.67l-3.486-9.971c-0.133-0.382-0.023-0.807,0.278-1.076l9-8.029c0.382-0.34,0.956-0.339,1.335,0.003 l9,8.108C53.96,41.627,54.071,42.035,53.954,42.409z M53.02,26c-0.005,0-0.013,0-0.02,0H35c-0.347,0-0.668-0.18-0.851-0.474 c-0.183-0.295-0.199-0.663-0.044-0.973l9-18c0.34-0.678,1.449-0.678,1.789,0l8.92,17.839c0.129,0.168,0.205,0.379,0.205,0.608 C54.02,25.552,53.572,26,53.02,26z"></path></g></svg></svg> <defs><filter id="colors5330258979"><feColorMatrix type="matrix" values="0 0 0 0 0.1484375  0 0 0 0 0.0703125  0 0 0 0 0.35546875  0 0 0 1 0" class="icon-fecolormatrix"></feColorMatrix></filter> <filter id="colorsf6590340523"><feColorMatrix type="matrix" values="0 0 0 0 0.99609375  0 0 0 0 0.99609375  0 0 0 0 0.99609375  0 0 0 1 0" class="icon-fecolormatrix"></feColorMatrix></filter> <filter id="colorsb3269304574"><feColorMatrix type="matrix" values="0 0 0 0 0  0 0 0 0 0  0 0 0 0 0  0 0 0 1 0" class="icon-fecolormatrix"></feColorMatrix></filter></defs></g></g> <g transform="translate(67,13.094999313354492)"><g data-gra="path-name" fill-rule="" class="tp-name iconsvg-namesvg"><g transform="scale(1)"><g><path d="M6.72 0L0.12 0 11.1-26.53 17.58-26.53 28.56 0 21.95 0 19.37-6.12 9.31-6.12 6.72 0ZM18.14-10.86L14.36-20.12 10.58-10.86 18.14-10.86ZM40.25-19.37L49.79-19.37 49.79 7.28 44.46 7.28 44.46 0 39.37 0Q34.92 0 32.53-2.59L32.53-2.59Q30.03-5.29 30.03-9.47L30.03-9.47Q30.03-14.99 33.53-17.7L33.53-17.7Q34.76-18.69 36.15-19.03 37.54-19.37 40.25-19.37L40.25-19.37ZM44.46-4.14L44.46-15.23 40.61-15.23Q38.14-15.23 36.83-13.82 35.51-12.41 35.51-9.7L35.51-9.7Q35.51-6.96 36.87-5.55 38.22-4.14 40.8-4.14L40.8-4.14 44.46-4.14ZM62.64-4.14L67.65-4.14 67.65-19.37 72.98-19.37 72.98 0 62.48 0Q60.21 0 58.98-0.34 57.75-0.68 56.79-1.55L56.79-1.55Q54.76-3.38 54.76-7.48L54.76-7.48 54.76-19.37 60.05-19.37 60.05-6.92Q60.05-5.61 60.75-4.87 61.44-4.14 62.64-4.14L62.64-4.14ZM85.03-11.77L91.55-11.77Q91.55-13.8 90.74-14.52 89.92-15.23 87.49-15.23L87.49-15.23 78.51-15.23 78.51-19.37 87.49-19.37Q89.92-19.37 90.84-19.27 91.75-19.17 92.7-18.89L92.7-18.89Q97.12-17.22 96.88-10.9L96.88-10.9 96.88 0 85.67 0Q82.64 0 81.49-0.18 80.34-0.36 79.46-0.91L79.46-0.91Q77.11-2.51 77.11-5.73L77.11-5.73Q77.11-7.68 78.05-9.21 78.98-10.74 80.53-11.29L80.53-11.29Q81.89-11.77 85.03-11.77L85.03-11.77ZM91.55-4.14L91.55-7.64 85.43-7.64 84.51-7.64Q83.6-7.64 83.06-7.16 82.52-6.68 82.52-5.85L82.52-5.85Q82.52-4.93 83.18-4.53 83.84-4.14 85.43-4.14L85.43-4.14 91.55-4.14ZM107.18-26.53L107.18 0 101.85 0 101.85-26.53 107.18-26.53ZM119.27-11.77L125.79-11.77Q125.79-13.8 124.98-14.52 124.16-15.23 121.74-15.23L121.74-15.23 112.75-15.23 112.75-19.37 121.74-19.37Q124.16-19.37 125.08-19.27 125.99-19.17 126.95-18.89L126.95-18.89Q131.36-17.22 131.12-10.9L131.12-10.9 131.12 0 119.91 0Q116.88 0 115.73-0.18 114.58-0.36 113.7-0.91L113.7-0.91Q111.36-2.51 111.36-5.73L111.36-5.73Q111.36-7.68 112.29-9.21 113.23-10.74 114.78-11.29L114.78-11.29Q116.13-11.77 119.27-11.77L119.27-11.77ZM125.79-4.14L125.79-7.64 119.67-7.64 118.75-7.64Q117.84-7.64 117.3-7.16 116.77-6.68 116.77-5.85L116.77-5.85Q116.77-4.93 117.42-4.53 118.08-4.14 119.67-4.14L119.67-4.14 125.79-4.14ZM136.09 0L136.09-19.37 146.35-19.37Q148.66-19.37 149.87-19.03 151.09-18.69 152.08-17.82L152.08-17.82Q154.11-15.95 154.11-11.93L154.11-11.93 154.11 0 148.78 0 148.78-12.53Q148.78-13.96 148.14-14.6 147.51-15.23 146.04-15.23L146.04-15.23 141.42-15.23 141.42 0 136.09 0ZM167.07-19.37L172.09-19.37 172.09-26.53 177.38-26.53 177.38 0 168.23 0Q165.44 0 164.01-0.44L164.01-0.44Q160.63-1.51 158.96-4.65L158.96-4.65Q157.81-6.76 157.81-9.82L157.81-9.82Q157.81-14.79 161.15-17.54L161.15-17.54Q163.34-19.37 167.07-19.37L167.07-19.37ZM168.23-4.14L172.09-4.14 172.09-15.23 168.23-15.23Q165.68-15.23 164.37-13.52L164.37-13.52Q163.22-12.09 163.22-9.82L163.22-9.82Q163.22-6.52 165.13-5.09L165.13-5.09Q166.44-4.14 168.23-4.14L168.23-4.14Z" transform="translate(-0.12000000476837158, 26.530000686645508)"></path></g> <!----> <!----> <!----> <!----> <!----> <!----> <!----></g></g> <!----></g></g><defs v-gra="od"></defs></svg>